<?xml version="1.0" standalone="no"?>
<!DOCTYPE svg PUBLIC "-//W3C//DTD SVG 20010904//EN"
 "http://www.w3.org/TR/2001/REC-SVG-20010904/DTD/svg10.dtd">
<svg version="1.0" xmlns="http://www.w3.org/2000/svg"
 width="1253.000000pt" height="480.000000pt" viewBox="0 0 1253.000000 480.000000"
 preserveAspectRatio="xMidYMid meet">

<g transform="translate(0.000000,480.000000) scale(0.100000,-0.100000)"
fill="#000000" stroke="none">
<path d="M992 4789 c-208 -27 -423 -116 -577 -241 -216 -173 -330 -370 -391
-678 -16 -76 -18 -193 -21 -1092 l-4 -1008 406 0 405 0 0 933 c0 594 4 956 11
997 12 79 56 177 95 214 61 58 100 70 214 71 96 0 109 -2 151 -27 60 -35 114
-92 142 -148 18 -36 22 -62 22 -135 0 -78 -4 -97 -27 -141 -65 -123 -214 -198
-331 -166 l-37 10 0 -423 0 -422 58 -7 c60 -7 228 6 305 24 293 65 586 293
739 576 51 93 61 120 96 239 24 83 26 105 26 295 1 181 -2 215 -22 293 -50
200 -149 368 -307 522 -192 188 -399 286 -667 315 -110 11 -194 11 -286 -1z"/>
<path d="M2832 4785 c-203 -57 -334 -250 -303 -447 23 -137 109 -249 239 -311
61 -29 76 -32 162 -32 87 0 101 3 162 33 107 52 190 147 225 257 19 61 16 173
-7 240 -24 70 -88 156 -144 194 -104 70 -231 95 -334 66z"/>
<path d="M4575 4790 c-83 -11 -135 -24 -235 -57 -411 -137 -712 -508 -759
-936 -7 -62 -11 -443 -11 -1062 l0 -965 425 0 425 0 2 998 3 997 30 59 c33 65
88 118 155 149 67 31 178 29 250 -4 64 -30 122 -86 153 -149 l22 -45 3 -1003
2 -1002 405 0 406 0 -3 1058 -3 1057 -29 95 c-103 349 -357 620 -697 744 -52
19 -130 42 -173 51 -99 20 -278 27 -371 15z"/>
<path d="M11232 4790 c-480 -68 -842 -382 -946 -821 -43 -178 -46 -261 -46
-1255 l0 -944 405 0 405 0 0 943 c0 1009 1 1025 51 1121 27 54 74 103 124 129
34 18 57 22 145 22 96 0 109 -2 151 -27 105 -62 160 -148 167 -262 3 -56 -1
-83 -17 -127 -54 -143 -214 -237 -344 -201 l-37 10 0 -423 0 -422 58 -7 c68
-7 245 8 325 29 253 66 471 219 648 455 58 77 142 258 170 365 21 80 24 112
23 290 0 185 -2 207 -26 297 -53 195 -149 359 -295 505 -166 167 -350 265
-577 308 -100 19 -300 27 -384 15z"/>
<path d="M7712 3728 l3 -1003 27 -95 c58 -212 152 -375 301 -523 300 -300 741
-411 1147 -290 410 122 724 467 795 872 13 70 15 247 15 1062 l0 979 -405 0
-405 0 0 -948 c0 -782 -2 -957 -14 -995 -20 -68 -76 -137 -142 -177 -51 -30
-68 -35 -135 -39 -98 -4 -161 16 -224 71 -25 22 -58 64 -73 92 l-27 51 -3 973
-2 972 -431 0 -430 0 3 -1002z"/>
<path d="M2522 2763 l3 -988 403 -3 402 -2 0 990 0 990 -405 0 -405 0 2 -987z"/>
<path d="M6098 3310 c-2 -187 -1 -345 0 -350 3 -7 243 -10 688 -10 l684 0 0
350 0 350 -685 0 -684 0 -3 -340z"/>
</g>
</svg>
