<svg  width="128" height="72" viewBox="0 0 921 518" fill="none" xmlns="http://www.w3.org/2000/svg">
<rect fill="#121212"/>
<path d="M182 356.457V356.285C182 338.545 195.94 324.63 214.777 324.63C227.484 324.63 235.65 329.848 241.152 337.324L228.187 347.156C224.634 342.813 220.551 340.025 214.592 340.025C205.883 340.025 199.764 347.242 199.764 356.112V356.285C199.764 365.413 205.895 372.544 214.592 372.544C221.081 372.544 224.893 369.583 228.631 365.154L241.596 374.197C235.737 382.104 227.829 387.939 214.062 387.939C196.298 387.939 182 374.641 182 356.457Z" fill="white"/>
<path d="M309.916 325.418H326.52L352.994 386.717H334.514L329.987 375.849H306.005L301.564 386.717H283.442L309.916 325.418ZM325.015 362.723L318.082 345.415L311.063 362.723H325.003H325.015Z" fill="white"/>
<path d="M393.419 377.681L403.017 366.467C409.148 371.254 415.982 373.77 423.174 373.77C427.788 373.77 430.28 372.204 430.28 369.601V369.428C430.28 366.912 428.232 365.518 419.794 363.605C406.558 360.645 396.343 356.993 396.343 344.472V344.299C396.343 332.999 405.497 324.82 420.411 324.82C430.983 324.82 439.248 327.608 445.996 332.913L437.386 344.83C431.699 340.919 425.481 338.834 419.979 338.834C415.81 338.834 413.762 340.574 413.762 342.745V342.918C413.762 345.706 415.896 346.915 424.507 348.827C438.804 351.874 447.686 356.389 447.686 367.787V367.96C447.686 380.395 437.645 387.784 422.545 387.784C411.529 387.784 401.056 384.392 393.407 377.693L393.419 377.681Z" fill="white"/>
<path d="M496.366 325.852H513.686V386.718H496.366V325.852Z" fill="white"/>
<path d="M565.024 325.852H581.099L606.684 358.024V325.852H623.732V386.718H608.633L582.073 353.324V386.718H565.024V325.852Z" fill="white"/>
<path d="M672.597 356.458V356.285C672.597 338.805 686.993 324.631 706.176 324.631C725.359 324.631 739.57 338.632 739.57 356.113V356.285C739.57 373.766 725.186 387.94 705.991 387.94C686.796 387.94 672.597 373.938 672.597 356.458ZM721.978 356.458V356.285C721.978 347.502 715.49 339.853 705.991 339.853C696.492 339.853 690.262 347.329 690.262 356.113V356.285C690.262 365.069 696.751 372.717 706.163 372.717C715.576 372.717 721.978 365.241 721.978 356.458Z" fill="white"/>
<path d="M240.446 178.75C240.228 168.17 240.382 147.781 240.536 134.033C240.561 131.956 238.894 130.25 236.804 130.25C221.3 130.212 195.64 130.097 185.765 130.045C183.585 130.032 181.867 131.879 182.008 134.059C182.431 139.971 183.213 150.974 183.662 157.283C184.675 171.723 185.727 186.649 186.83 201.32C187.214 206.449 187.612 211.592 188.022 216.721C196.576 210.694 204.937 204.359 213.567 198.422C222.698 192.125 231.559 185.431 240.433 178.75H240.446Z" fill="#2FAF16"/>
<path d="M293.73 142.056C297.09 139.568 300.283 136.824 303.604 134.297C303.489 133.913 303.386 133.541 303.271 133.156C302.809 131.579 301.386 130.476 299.732 130.45C290.857 130.309 281.894 130.284 273.173 130.271H269.608C267.916 130.271 266.428 131.386 265.992 133.028C263.402 142.543 259.631 155.88 256.464 166.934C261.388 163.523 266.967 160.971 271.968 157.611C279.355 152.623 286.549 147.326 293.73 142.043V142.056Z" fill="#2FAF16"/>
<path d="M329.523 292.133C333.318 292.133 337.127 292.171 340.923 292.171H371.867C373.829 292.171 375.457 290.658 375.598 288.709L378.856 245.313L306.26 292.184C314.057 292.069 321.88 292.107 329.51 292.133H329.523Z" fill="#2FAF16"/>
<path d="M383.495 130.026H377.212C362.028 130.026 347.127 130.026 332.264 130.026C330.187 130.026 328.52 131.706 328.52 133.783C328.52 135.438 328.52 137.31 328.52 139.31L326.481 208.802L317.62 182.116C317.62 182.116 309.015 152.98 304.616 137.823C298.551 143.709 292.523 149.621 286.073 155.084C280.11 160.123 274.378 165.189 269.197 170.998C264.209 176.64 258.669 182.129 252.5 186.527C241.113 194.671 231.649 204.609 222.031 214.342C212.631 223.857 202.218 231.244 189.6 236.45C189.6 236.45 189.574 236.45 189.561 236.45C189.741 238.733 189.908 241.016 190.1 243.311C191.267 258.212 192.485 273.588 193.639 288.771C193.793 290.733 195.422 292.247 197.397 292.234C215.594 292.131 234.009 292.157 251.859 292.17H266.978C268.735 292.17 270.261 290.951 270.633 289.233C272.095 282.513 275.468 268.869 278.661 256.071C282.457 240.939 286.047 226.974 286.047 226.974L289.651 243.337C292.421 255.943 295.024 269.151 297.922 285.591C314.837 276.486 330.7 265.624 345.742 253.326C357.373 243.811 369.466 234.706 380.418 224.537L387.227 134.065C387.394 131.885 385.675 130.039 383.495 130.039V130.026Z" fill="#2FAF16"/>
<path d="M646.511 229.16C651.384 225.672 656.296 222.223 661.246 218.837C661.246 202.371 661.31 183.418 661.387 175.762C661.412 173.377 662.451 171.12 664.221 169.53C665.99 167.939 668.376 167.183 670.735 167.439C674.813 167.875 676.942 169.696 678.07 171.851C679.199 174.005 679.314 176.442 679.404 178.173C679.725 184.546 679.776 195.664 679.673 206.642C698.781 194.113 718.337 182.097 738.022 170.248C737.573 166.695 736.996 163.156 736.329 159.642C733.456 144.664 725.698 135.906 712.631 132.879C708.155 131.84 702.884 130.763 697.742 130.712C675.082 130.443 652.025 130.314 629.738 130.186C621.607 130.148 613.477 130.096 605.359 130.058C603.282 130.058 601.589 131.725 601.589 133.802C601.653 177.134 601.666 221.081 601.692 263.669C616.093 251.679 631.058 240.279 646.511 229.186V229.16Z" fill="#2FAF16"/>
<path d="M739.541 197.853C719.151 206.919 698.928 216.306 679.346 226.937C679.192 232.451 679.026 236.555 678.859 238.004C678.397 242.249 674.383 245.506 669.793 245.506C669.6 245.506 669.408 245.506 669.203 245.506C664.586 245.224 661.38 241.748 661.316 237.042C656.11 240.184 650.967 243.454 645.889 246.852C631.911 256.226 616.561 264.19 601.698 272.602V288.427C601.698 290.492 603.365 292.172 605.43 292.172C610.393 292.172 619.1 292.172 624.101 292.172C643.183 292.172 662.932 292.21 682.334 292.082C689.362 292.03 696.748 291.543 704.263 290.607C721.139 288.504 731.193 279.925 735.001 264.344C736.579 257.868 738.233 250.251 738.566 242.928C739.285 226.591 739.592 211.766 739.528 197.853H739.541Z" fill="#2FAF16"/>
<path d="M516.848 130.205C505.96 130.167 494.868 130.103 483.185 130C481.095 129.987 479.389 131.667 479.402 133.758C479.402 137.938 479.402 142.132 479.415 146.312C488.623 141.952 498.01 137.964 507.512 134.181C510.667 132.937 513.77 131.578 516.861 130.205H516.848Z" fill="#2FAF16"/>
<path d="M580.369 249.104H538.973V244.115C538.973 243.372 538.858 171.443 538.922 133.959C538.922 131.882 537.242 130.215 535.165 130.215C532.998 130.215 530.83 130.215 528.65 130.215C512.261 139.153 495.885 148.117 479.433 156.952C479.471 187.627 479.484 218.301 479.51 248.963L479.535 288.178C479.535 290.243 481.215 291.923 483.28 291.923H562.877C570.033 287.421 577.445 283.074 584.113 278.252V252.836C584.113 250.771 582.433 249.091 580.369 249.091V249.104Z" fill="#2FAF16"/>
<path d="M580.369 291.932C582.434 291.932 584.114 290.253 584.114 288.188V283.469C579.035 286.303 573.931 289.124 568.84 291.932H580.369Z" fill="#2FAF16"/>
<path d="M457.981 170.159C443.785 177.815 432.243 188.279 421.805 200.077C414.893 207.861 408.263 215.863 401.659 223.878C401.659 238.228 401.659 252.501 401.684 266.633V288.382C401.684 290.446 403.377 292.126 405.442 292.126H416.509C429.871 292.126 443.631 292.126 457.275 292.178C459.353 292.178 461.033 290.498 461.033 288.42C461.033 243.319 461.046 204.232 461.071 168.467C460.045 169.044 459.007 169.608 457.968 170.146L457.981 170.159Z" fill="#2FAF16"/>
<path d="M457.362 130.171C441.73 130.197 424.956 130.171 405.375 130.043C403.297 130.043 401.592 131.71 401.604 133.787C401.643 157.088 401.656 180.556 401.656 203.908C416.557 190.109 432.433 177.542 449.424 166.206C453.259 163.641 457.144 161.23 461.094 158.948C461.094 150.433 461.12 142.097 461.132 133.903C461.132 131.825 459.453 130.158 457.375 130.158L457.362 130.171Z" fill="#2FAF16"/>
</svg>
